<svg xmlns="http://www.w3.org/2000/svg" width="112.48mm" height="112.708mm" viewBox="0 0 318.842 319.486">
  <title>DiceRoll_icon</title>
  <g id="3f94e363-cd69-4481-b24b-e91a0684a1f4" data-name="Capa 2">
    <g id="299436d6-097b-406e-b10c-00cfc93bc238" data-name="Capa 6">
      <g>
        <path d="M164.41,227.029c-1.886-1.124-2.493-2.766-2.487-4.959q.089-33.748.014-67.5a4.51,4.51,0,0,1,2.972-4.6c2.73-1.183,5.436-2.421,8.152-3.633q21.754-9.707,43.514-19.4c3.573-1.588,6.217.194,6.218,4.111q.006,32.763.006,65.526a8.025,8.025,0,0,1-5.162,7.931q-25.3,11.256-50.6,22.52Zm32.989-60.2c-1.92-2.9-4.8-3.068-7.1-.463-3.293,3.736-3.675,11.475-.767,15.53,1.79,2.5,4.588,2.636,6.7.337,1.842-2,2.828-5,2.847-8.985A10.729,10.729,0,0,0,197.4,166.83Z"/>
        <path d="M151.8,227.029q-8.333-3.7-16.666-7.408-17.137-7.641-34.27-15.3a7.494,7.494,0,0,1-4.8-7.208q-.061-33.282-.026-66.563a4.276,4.276,0,0,1,.857-2.7c1.247-1.625,3.06-1.947,5.457-.879q25.83,11.506,51.651,23.036a4.48,4.48,0,0,1,2.89,4.523q-.047,33.938.007,67.875a4.511,4.511,0,0,1-2.738,4.618Zm-40.116-62.961c2.412,2.924,5.6,2.651,7.439-.71,2.152-3.941,1.991-8.055.389-12.158a7.743,7.743,0,0,0-2.69-3.644,3.675,3.675,0,0,0-5.1.425c-2.154,2.138-2.488,4.912-2.688,7.567C109.173,158.744,109.7,161.664,111.687,164.068Zm22.625,38.7c2.282,2.654,5.144,2.437,7.062-.469,2.755-4.174,2.2-11.671-1.14-15.4-2.03-2.265-4.866-2.113-6.7.359a11.46,11.46,0,0,0-1.918,6.954C131.593,197.352,132.2,200.313,134.312,202.764Z"/>
        <path d="M163.239,93.342q22.434,9.449,44.861,18.912c2.176.917,4.364,1.812,6.509,2.8a3.927,3.927,0,0,1,.131,7.175c-.7.362-1.42.68-2.139,1q-25.167,11.229-50.325,22.48a6.5,6.5,0,0,1-5.765-.018c-12.6-5.68-25.238-11.283-37.861-16.916-4.714-2.1-9.432-4.2-14.13-6.337-1.98-.9-2.843-2.257-2.682-4.079.173-1.951,1.462-2.959,3.139-3.666q25.395-10.7,50.783-21.417a7.47,7.47,0,0,1,3.674-.794A7.8,7.8,0,0,1,163.239,93.342Zm-25.128,28.529c2.611-1.988,2.64-4.864.094-6.949-3.842-3.147-11.794-3.147-15.613,0-2.407,1.982-2.444,4.639-.094,6.71,1.779,1.568,4.646,2.448,8.7,2.442A11.262,11.262,0,0,0,138.111,121.871Zm57.2.537c3.632-2.242,3.666-5.706.1-8.046-3.716-2.438-10.615-2.377-14.272.125-3.177,2.174-3.235,5.347-.09,7.6a12.186,12.186,0,0,0,7.636,1.976A11.968,11.968,0,0,0,195.311,122.408Zm-28.653-.23c3.21-2.121,3.3-5.393.084-7.557-3.487-2.346-7.369-2.5-11.346-1.539a9.657,9.657,0,0,0-3.661,1.707c-2.624,2.019-2.632,5.046,0,7.067,1.893,1.453,4.526,2.214,8.264,2.219A11.551,11.551,0,0,0,166.658,122.178Z"/>
      </g>
    </g>
    <g id="9c00d177-4519-4a19-81c5-4ae8e5ce135e" data-name="Capa 5">
      <g>
        <path d="M35.857,99.95,16.374,88.7A158.545,158.545,0,0,0,0,149.743H45.119a113.829,113.829,0,0,1,10.322-38.486Z"/>
        <path d="M78.452,240.962a114.56,114.56,0,0,0,129.455,22.761l11.307,19.584,11.248,19.483A159.5,159.5,0,0,1,39.853,265.553l11.068-25.31Z"/>
        <path d="M45.119,169.743H0a158.555,158.555,0,0,0,16.374,61.042l14.547-21.542,24.52-1.014A113.829,113.829,0,0,1,45.119,169.743Z"/>
        <path d="M82.317,46.2,71.074,26.722A161.041,161.041,0,0,0,26.4,71.4L45.873,82.639,65.467,93.952A115.675,115.675,0,0,1,93.63,65.79Z"/>
        <path d="M238.663,76.839A114.549,114.549,0,0,0,110.935,55.764L99.628,36.179,88.38,16.7A159.492,159.492,0,0,1,278.013,52.843l-5.044,29.8Z"/>
        <path d="M302.468,88.7l-14.547,22.041-24.521.514a113.83,113.83,0,0,1,10.323,38.486h45.119A158.545,158.545,0,0,0,302.468,88.7Z"/>
        <path d="M296.3,169.743H273.723A113.83,113.83,0,0,1,263.4,208.229l19.585,11.307,19.483,11.249a158.555,158.555,0,0,0,16.374-61.042Z"/>
        <path d="M272.969,236.847l-19.594-11.313A115.7,115.7,0,0,1,225.212,253.7l11.313,19.594,11.243,19.473a161.051,161.051,0,0,0,44.674-44.674Z"/>
      </g>
    </g>
  </g>
</svg>
