<svg xmlns="http://www.w3.org/2000/svg" width="327.29mm" height="374.635mm" viewBox="0 0 927.751 1061.958">
  <title>JustTechBoard_1</title>
  <g id="087f720f-1542-481f-8767-99510ab12eb1" data-name="Capa 2">
    <g id="0f79a2a4-523d-48c7-895e-85982288e313" data-name="Capa 2">
      <rect x="428.542" y="405.076" width="69.333" height="53.997" rx="9.967" ry="9.967" fill="#c23334" stroke="#211915" stroke-miterlimit="10"/>
      <rect x="424.084" y="331.826" width="78.25" height="53.997" rx="10.542" ry="10.542" fill="#fff" stroke="#211915" stroke-miterlimit="10"/>
      <rect x="419.626" y="258.576" width="87.167" height="53.997" rx="11.117" ry="11.117" fill="#211915" stroke="#fff" stroke-miterlimit="10"/>
      <rect x="415.167" y="185.326" width="96.083" height="53.997" rx="11.691" ry="11.691" fill="#447dab" stroke="#211915" stroke-miterlimit="10"/>
      <rect x="410.709" y="112.076" width="105" height="53.997" rx="12.266" ry="12.266" fill="#939393" stroke="#211915" stroke-miterlimit="10"/>
      <rect x="428.542" y="604.076" width="69.333" height="53.997" rx="9.967" ry="9.967" fill="#211915" stroke="#fff" stroke-miterlimit="10"/>
      <rect x="424.084" y="677.326" width="78.25" height="53.997" rx="10.542" ry="10.542" fill="#447dab" stroke="#211915" stroke-miterlimit="10"/>
      <rect x="419.626" y="750.576" width="87.167" height="53.997" rx="11.117" ry="11.117" fill="#c23334" stroke="#211915" stroke-miterlimit="10"/>
      <rect x="415.167" y="823.826" width="96.083" height="53.997" rx="11.691" ry="11.691" fill="#fff" stroke="#211915" stroke-miterlimit="10"/>
      <rect x="410.709" y="897.076" width="105" height="53.997" rx="12.266" ry="12.266" fill="#208f43" stroke="#211915" stroke-miterlimit="10"/>
      <rect x="522.733" y="447.774" width="53.997" height="69.333" rx="9.967" ry="9.967" transform="translate(-166.532 334.387) rotate(-29.591)" fill="#208f43" stroke="#211915" stroke-miterlimit="10"/>
      <rect x="586.429" y="407.144" width="53.997" height="78.25" rx="10.542" ry="10.542" transform="translate(-140.363 361.123) rotate(-29.591)" fill="#211915" stroke="#fff" stroke-miterlimit="10"/>
      <rect x="650.125" y="366.515" width="53.997" height="87.167" rx="11.117" ry="11.117" transform="translate(-114.193 387.859) rotate(-29.591)" fill="#939393" stroke="#211915" stroke-miterlimit="10"/>
      <rect x="713.821" y="325.885" width="53.997" height="96.083" rx="11.691" ry="11.691" transform="translate(-88.023 414.594) rotate(-29.591)" fill="#c23334" stroke="#211915" stroke-miterlimit="10"/>
      <rect x="777.517" y="285.255" width="53.997" height="105" rx="12.266" ry="12.266" transform="translate(-61.854 441.33) rotate(-29.591)" fill="#447dab" stroke="#211915" stroke-miterlimit="10"/>
      <rect x="349.688" y="546.042" width="53.997" height="69.333" rx="9.967" ry="9.967" transform="translate(-237.628 261.753) rotate(-29.591)" fill="#939393" stroke="#211915" stroke-miterlimit="10"/>
      <rect x="285.992" y="577.755" width="53.997" height="78.25" rx="10.542" ry="10.542" transform="translate(-263.798 235.017) rotate(-29.591)" fill="#c23334" stroke="#211915" stroke-miterlimit="10"/>
      <rect x="222.296" y="609.469" width="53.997" height="87.167" rx="11.117" ry="11.117" transform="translate(-289.968 208.281) rotate(-29.591)" fill="#208f43" stroke="#211915" stroke-miterlimit="10"/>
      <rect x="158.6" y="641.182" width="53.997" height="96.083" rx="11.691" ry="11.691" transform="translate(-316.137 181.546) rotate(-29.591)" fill="#211915" stroke="#fff" stroke-miterlimit="10"/>
      <rect x="94.904" y="672.895" width="53.997" height="105" rx="12.266" ry="12.266" transform="translate(-342.307 154.81) rotate(-29.591)" fill="#fff" stroke="#211915" stroke-miterlimit="10"/>
      <rect x="342.216" y="455.099" width="69.333" height="53.997" rx="9.967" ry="9.967" transform="translate(-228.795 569.351) rotate(-60.181)" fill="#447dab" stroke="#211915" stroke-miterlimit="10"/>
      <rect x="274.206" y="418.674" width="78.25" height="53.997" rx="10.542" ry="10.542" transform="translate(-229.142 495.901) rotate(-60.181)" fill="#208f43" stroke="#211915" stroke-miterlimit="10"/>
      <rect x="206.196" y="382.249" width="87.167" height="53.997" rx="11.117" ry="11.117" transform="translate(-229.49 422.452) rotate(-60.181)" fill="#fff" stroke="#211915" stroke-miterlimit="10"/>
      <rect x="138.186" y="345.825" width="96.083" height="53.997" rx="11.691" ry="11.691" transform="translate(-229.838 349.003) rotate(-60.181)" fill="#939393" stroke="#211915" stroke-miterlimit="10"/>
      <rect x="70.176" y="309.4" width="105" height="53.997" rx="12.266" ry="12.266" transform="translate(-230.185 275.554) rotate(-60.181)" fill="#211915" stroke="#fff" stroke-miterlimit="10"/>
      <rect x="514.868" y="554.054" width="69.333" height="53.997" rx="9.967" ry="9.967" transform="translate(-227.85 768.892) rotate(-60.181)" fill="#fff" stroke="#211915" stroke-miterlimit="10"/>
      <rect x="573.962" y="590.479" width="78.25" height="53.997" rx="10.542" ry="10.542" transform="translate(-227.502 842.341) rotate(-60.181)" fill="#939393" stroke="#211915" stroke-miterlimit="10"/>
      <rect x="633.055" y="626.903" width="87.167" height="53.997" rx="11.117" ry="11.117" transform="translate(-227.155 915.791) rotate(-60.181)" fill="#447dab" stroke="#211915" stroke-miterlimit="10"/>
      <rect x="692.148" y="663.328" width="96.083" height="53.997" rx="11.691" ry="11.691" transform="translate(-226.807 989.24) rotate(-60.181)" fill="#208f43" stroke="#211915" stroke-miterlimit="10"/>
      <rect x="751.242" y="699.753" width="105" height="53.997" rx="12.266" ry="12.266" transform="translate(-226.459 1062.689) rotate(-60.181)" fill="#c23334" stroke="#211915" stroke-miterlimit="10"/>
    </g>
    <g id="25725b44-1141-4c64-85e2-0bfee251a2ff" data-name="Capa 3">
      <polygon points="335.203 910.896 310.892 977.689 371.359 1012.599 384.294 939.239 335.203 910.896" fill="#f2d55c" stroke="#211915" stroke-miterlimit="10"/>
      <polygon points="857.229 525.98 927.229 525.98 927.229 460.401 857.229 472.744 857.229 525.98" fill="#447dab" stroke="#211915" stroke-miterlimit="10"/>
      <polygon points="857.229 456.498 927.229 444.155 927.229 373.846 857.229 399.324 857.229 456.498" fill="#f2d55c" stroke="#211915" stroke-miterlimit="10"/>
      <polygon points="924.528 268.022 851.096 219.507 794.031 267.389 854.529 308.436 857.229 382.297 927.229 356.819 924.528 268.022" fill="#939393"/>
      <polygon points="594.353 152.105 618.664 85.312 557.353 49.914 544.417 123.274 594.353 152.105" fill="#f2d55c" stroke="#211915" stroke-miterlimit="10"/>
      <polygon points="275.426 876.384 240.426 937.006 296.822 969.566 321.133 902.773 275.426 876.384" fill="#c23334" stroke="#211915" stroke-miterlimit="10"/>
      <polygon points="779.286 258.876 836.35 210.993 775.039 175.595 729.35 230.045 779.286 258.876" fill="#f2d55c" stroke="#211915" stroke-miterlimit="10"/>
      <polygon points="715.28 221.922 760.969 167.472 703.78 134.453 668.78 195.075 715.28 221.922" fill="#c23334" stroke="#211915" stroke-miterlimit="10"/>
      <polygon points="654.924 187.075 689.924 126.454 632.734 93.435 608.424 160.228 654.924 187.075" fill="#208f43" stroke="#211915" stroke-miterlimit="10"/>
      <polygon points="857.229 668.635 927.229 694.113 927.229 623.804 857.229 611.462 857.229 668.635" fill="#f2d55c" stroke="#211915" stroke-miterlimit="10"/>
      <polygon points="857.229 541.98 857.229 595.215 927.229 607.558 927.229 541.98 857.229 541.98" fill="#939393" stroke="#211915" stroke-miterlimit="10"/>
      <polygon points="725.958 833.872 771.648 888.322 832.114 853.412 775.05 805.529 725.958 833.872" fill="#f2d55c" stroke="#211915" stroke-miterlimit="10"/>
      <polygon points="857.229 685.662 851.931 758.023 789.795 797.016 846.86 844.898 921.931 798.437 927.229 711.14 857.229 685.662" fill="#447dab" stroke="#211915" stroke-miterlimit="10"/>
      <polygon points="543.457 939.239 556.392 1012.599 616.859 977.689 592.549 910.896 543.457 939.239" fill="#f2d55c" stroke="#211915" stroke-miterlimit="10"/>
      <polygon points="666.181 868.384 701.181 929.006 757.578 896.445 711.888 841.995 666.181 868.384" fill="#fff" stroke="#211915" stroke-miterlimit="10"/>
      <polygon points="528.711 947.752 463.876 980.566 399.04 947.752 386.105 1021.113 463.876 1061.395 541.647 1021.113 528.711 947.752" fill="#c23334" stroke="#211915" stroke-miterlimit="10"/>
      <polygon points="606.619 902.772 630.93 969.565 687.325 937.005 652.325 876.384 606.619 902.772" fill="#211915" stroke="#fff" stroke-miterlimit="10"/>
      <polygon points="70.522 611.462 0.522 623.805 0.522 694.113 70.522 668.635 70.522 611.462" fill="#f2d55c" stroke="#211915" stroke-miterlimit="10"/>
      <polygon points="70.522 399.324 0.522 373.846 0.522 444.155 70.522 456.497 70.522 399.324" fill="#f2d55c" stroke="#211915" stroke-miterlimit="10"/>
      <polygon points="319.328 160.228 295.017 93.435 237.828 126.453 272.828 187.075 319.328 160.228" fill="#fff" stroke="#211915" stroke-miterlimit="10"/>
      <polygon points="215.863 841.995 170.174 896.446 226.57 929.006 261.57 868.384 215.863 841.995" fill="#208f43" stroke="#211915" stroke-miterlimit="10"/>
      <polygon points="75.82 758.023 70.522 685.662 0.522 711.14 5.821 798.438 80.892 844.899 137.956 797.016 75.82 758.023" fill="#208f43" stroke="#211915" stroke-miterlimit="10"/>
      <polygon points="198.401 230.045 152.712 175.595 91.402 210.993 148.466 258.876 198.401 230.045" fill="#f2d55c" stroke="#211915" stroke-miterlimit="10"/>
      <polygon points="258.971 195.075 223.972 134.453 166.782 167.472 212.471 221.922 258.971 195.075" fill="#211915" stroke="#fff" stroke-miterlimit="10"/>
      <polygon points="70.522 472.744 0.522 460.401 0.522 525.98 70.522 525.98 70.522 472.744" fill="#447dab" stroke="#211915" stroke-miterlimit="10"/>
      <polygon points="76.656 219.506 3.223 268.022 0.522 356.819 70.522 382.297 73.223 308.436 133.72 267.389 76.656 219.506" fill="#fff" stroke="#211915" stroke-miterlimit="10"/>
      <polygon points="70.522 541.98 0.522 541.98 0.522 607.558 70.522 595.215 70.522 541.98" fill="#939393" stroke="#211915" stroke-miterlimit="10"/>
      <polygon points="383.334 123.274 370.399 49.914 309.088 85.311 333.398 152.105 383.334 123.274" fill="#f2d55c" stroke="#211915" stroke-miterlimit="10"/>
      <polygon points="152.701 805.529 95.637 853.412 156.103 888.322 201.793 833.872 152.701 805.529" fill="#f2d55c" stroke="#211915" stroke-miterlimit="10"/>
      <polygon points="463.876 0.563 385.144 41.4 398.08 114.761 463.876 81.392 529.672 114.761 542.607 41.4 463.876 0.563" fill="#211915" stroke="#fff" stroke-miterlimit="10"/>
    </g>
  </g>
</svg>
