<svg xmlns="http://www.w3.org/2000/svg" xmlns:xlink="http://www.w3.org/1999/xlink" width="327.102mm" height="374.238mm" viewBox="0 0 927.218 1060.832">
  <defs>
    <clipPath id="987ed1d9-0497-4696-8265-fbf25e310ecf">
      <path d="M443.235,537.2h1.628c0,3.011.169,6.413-5.052,6.442-4.1,0-5.226-2.973-5.226-6.254h1.628c.028,2.7.8,4.619,3.593,4.626C443.354,542.035,443.224,539.924,443.235,537.2Z" fill="none"/>
    </clipPath>
    <clipPath id="bb002d62-27e3-497c-a241-9b8890018cac">
      <path d="M436.213,503.039h-1.628a2.36,2.36,0,0,1,2.359-2.361v1.628A.734.734,0,0,0,436.213,503.039Z" fill="none"/>
    </clipPath>
    <clipPath id="7c595b31-2bdf-4290-80ad-40b324eae5c9">
      <path d="M427.807,552.111a4.994,4.994,0,0,0-.253,1.776l-.087-2.056A2.134,2.134,0,0,0,427.807,552.111Z" fill="none"/>
    </clipPath>
    <clipPath id="a305d174-8135-4c16-8d22-74430e393683">
      <path d="M436.126,545.023a5.777,5.777,0,0,0-1.809.348s-.1-.089-.317-.3Z" fill="none"/>
    </clipPath>
    <clipPath id="76865e26-4d31-437e-99ee-3fcf360c941b">
      <path d="M431.692,540.8c.443-.22.77-.391,1.131-.59l-1.115.617C431.7,540.809,431.694,540.8,431.692,540.8Z" fill="none"/>
    </clipPath>
    <clipPath id="1a5a25d9-48e3-4200-9970-ffe61a6e8e3d">
      <path d="M431.692,540.8c.443-.22.77-.391,1.131-.59l.318-.177a17.666,17.666,0,0,0,.832,2.339,16.521,16.521,0,0,0,2.341,2.646l-.188,0a5.1,5.1,0,0,0-.931.1,7.291,7.291,0,0,0-.878.244,14.031,14.031,0,0,1-1.8-2.269A12.937,12.937,0,0,1,431.692,540.8Z" fill="none"/>
    </clipPath>
    <clipPath id="33308593-f242-4fa4-b6e1-d0229c846fcb">
      <path d="M427.807,552.111a5.53,5.53,0,0,0-.221.983,5.242,5.242,0,0,0-.024.983,23.536,23.536,0,0,1-4.377-5.9,16.758,16.758,0,0,1-1.983-6.208,2.557,2.557,0,0,1,2.551-2.763v1.629a.929.929,0,0,0-.929,1,15.1,15.1,0,0,0,1.778,5.538A37.213,37.213,0,0,0,427.807,552.111Z" fill="none"/>
    </clipPath>
    <clipPath id="b3099a4f-72af-403c-b3fc-5efa168cf62d">
      <path d="M431.378,540.592l-.052-1.628a2.073,2.073,0,0,1,1.815,1.07l-1.433.794A.408.408,0,0,0,431.378,540.592Z" fill="none"/>
    </clipPath>
    <clipPath id="0643a4ca-8fe7-474d-9fe4-c4601c81bb33">
      <path d="M430.4,556.136a9.038,9.038,0,0,0,2.239-.423c-.014,0,.081.082.294.259Z" fill="none"/>
    </clipPath>
    <clipPath id="97e9ee13-6e44-4a93-8039-9c606b258bdf">
      <path d="M439.507,548.459a8.04,8.04,0,0,0-.066-.946,2.41,2.41,0,0,0-.145-.545l.613,1.5A2.479,2.479,0,0,1,439.507,548.459Z" fill="none"/>
    </clipPath>
    <clipPath id="b83ed4d1-528c-4ba7-a20a-eb25b08bc6a3">
      <path d="M430.4,556.136a9.038,9.038,0,0,0,2.239-.423,19.483,19.483,0,0,0,9.284,2.511,17.615,17.615,0,0,0,10.845-3.959c.247-.182,5.606-4.136,6.984-13.09l2.041-.007c-1.509,10.059-7.487,14.491-7.8,14.724a19.156,19.156,0,0,1-24.017.271Z" fill="none"/>
    </clipPath>
    <clipPath id="ca3b925b-77e3-4a91-97f0-fda0f2674871">
      <path d="M439.507,548.459a6.148,6.148,0,0,0-.1-1.121,2.322,2.322,0,0,0-.072-.262c-.033-.089-.033-.089-.275-.684q.37.018.721.018c7.914,0,8.219-6.2,8.235-6.53l2.033.1c-.024.465-.465,8.5-10.268,8.465A1.649,1.649,0,0,0,439.507,548.459Z" fill="none"/>
    </clipPath>
    <clipPath id="aed92004-8828-46b0-bba0-d6198f7eb586">
      <path d="M484.435,513.044c-.115-.408-.264-.936-.4-1.393l.4,1.391Z" fill="none"/>
    </clipPath>
    <clipPath id="08de2717-a513-4377-93f9-968c81abdefa">
      <path d="M466.881,508.017c-.16-.047-.427-.125-.817-.232l.821.225Z" fill="none"/>
    </clipPath>
    <clipPath id="15fa0816-d8af-48d2-8ebf-abff7e354118">
      <path d="M504.94,501.278a19.941,19.941,0,0,0-1.339,1.5h-.144Z" fill="none"/>
    </clipPath>
    <clipPath id="bd3af99f-4f51-42f8-95fb-5e3dd2635131">
      <path d="M466.064,507.785l.821.225,0,.007C466.506,507.907,466.219,507.828,466.064,507.785Z" fill="none"/>
    </clipPath>
    <clipPath id="e7c183f9-2596-4014-91a0-02fe6e35d29e">
      <path d="M491.439,511.588v2.035a3.6,3.6,0,0,0-3.6,3.6h-2.035A5.629,5.629,0,0,1,491.439,511.588Z" fill="none"/>
    </clipPath>
    <clipPath id="69d4735b-059b-4eb0-8093-de75d3f79f93">
      <path d="M476.853,522.647h-2.036c-.015-.443-.306-8.854,9.056-11.566l.569,1.961C476.592,515.309,476.84,522.254,476.853,522.647Z" fill="none"/>
    </clipPath>
    <clipPath id="597cd2e6-fd86-4f0e-8d44-9b48fb2b35fd">
      <path d="M483.875,506.594l-.137,2.043c-.249.039-4.986.78-7.362,4.444l-1.1-2.042C477.584,507.52,483.1,506.676,483.875,506.594Z" fill="none"/>
    </clipPath>
    <clipPath id="430ac331-79b5-4c2d-8c39-fe333e254239">
      <path d="M484.435,513.044c-.115-.408-.264-.936-.4-1.393l-.166-.57c.07-.009,1.391-.171,1.391-1.257s-1.45-1.182-1.526-1.187l.137-2.043c.157.023,3.286.088,3.424,3.23A3.246,3.246,0,0,1,484.435,513.044Z" fill="none"/>
    </clipPath>
    <clipPath id="b5bd5c82-50a3-4e31-9905-5d4e9ca4e873">
      <path d="M504.94,501.278a19.941,19.941,0,0,0-1.339,1.5s-9.563.026-18,.025c-4.521.007-8.578-.007-10.67-.031v-2.035c2.1.023,6.159.031,10.671.031,9.026,0,19.338-.029,19.881-.03Z" fill="none"/>
    </clipPath>
    <clipPath id="92de1052-8428-4eb3-a70b-20160c4f4ba9">
      <path d="M466.881,508.017c-.429-.126-.429-.126-2.038-.567.2-.336,4.1-6.717,10.087-6.718v2.035C470.269,502.715,466.884,508.018,466.881,508.017Z" fill="none"/>
    </clipPath>
    <clipPath id="46a7065b-8c9c-495e-8865-188a1a3dc7b3">
      <path d="M462.224,552.838a8.221,8.221,0,0,0-1.4-.106l1.554-.03C462.284,552.792,462.236,552.84,462.224,552.838Z" fill="none"/>
    </clipPath>
    <clipPath id="0b841fdd-5e13-400e-95d3-694c0e93d49e">
      <path d="M462.224,552.838a8.121,8.121,0,0,0-1.6-.1c.093-.093,1.849-1.865,4.223-10.888l1.191.313C463.913,550.274,462.139,552.826,462.224,552.838Z" fill="none"/>
    </clipPath>
  </defs>
  <title>JustTechBoard</title>
  <g id="39e1a955-cac4-4e0b-bd64-84835fac0dd7" data-name="Capa 2">
    <g id="3e7336ee-b516-40db-8a7b-d4010d82fb1e" data-name="Capa 2">
      <rect x="428.531" y="404.513" width="69.333" height="53.997" rx="9.967" ry="9.967" fill="#c23334"/>
      <rect x="424.073" y="331.263" width="78.25" height="53.997" rx="10.542" ry="10.542" fill="#fff" stroke="#211915" stroke-miterlimit="10"/>
      <rect x="419.615" y="258.013" width="87.167" height="53.997" rx="11.117" ry="11.117" fill="#040006"/>
      <rect x="415.156" y="184.763" width="96.083" height="53.997" rx="11.691" ry="11.691" fill="#447dab"/>
      <rect x="410.698" y="111.513" width="105" height="53.997" rx="12.266" ry="12.266" fill="#939393"/>
      <rect x="428.531" y="603.513" width="69.333" height="53.997" rx="9.967" ry="9.967" fill="#040006"/>
      <rect x="424.073" y="676.763" width="78.25" height="53.997" rx="10.542" ry="10.542" fill="#447dab"/>
      <rect x="419.615" y="750.013" width="87.167" height="53.997" rx="11.117" ry="11.117" fill="#c23334"/>
      <rect x="415.156" y="823.263" width="96.083" height="53.997" rx="11.691" ry="11.691" fill="#fff" stroke="#211915" stroke-miterlimit="10"/>
      <rect x="410.698" y="896.513" width="105" height="53.997" rx="12.266" ry="12.266" fill="#208f43"/>
      <rect x="522.722" y="447.211" width="53.997" height="69.333" rx="9.967" ry="9.967" transform="translate(-166.256 334.308) rotate(-29.591)" fill="#208f43"/>
      <rect x="586.418" y="406.581" width="53.997" height="78.25" rx="10.542" ry="10.542" transform="translate(-140.086 361.044) rotate(-29.591)" fill="#040006"/>
      <rect x="650.114" y="365.951" width="53.997" height="87.167" rx="11.117" ry="11.117" transform="translate(-113.916 387.78) rotate(-29.591)" fill="#939393"/>
      <rect x="713.81" y="325.321" width="53.997" height="96.083" rx="11.691" ry="11.691" transform="translate(-87.747 414.516) rotate(-29.591)" fill="#c23334"/>
      <rect x="777.506" y="284.692" width="53.997" height="105" rx="12.266" ry="12.266" transform="translate(-61.577 441.251) rotate(-29.591)" fill="#447dab"/>
      <rect x="349.677" y="545.479" width="53.997" height="69.333" rx="9.967" ry="9.967" transform="translate(-237.352 261.674) rotate(-29.591)" fill="#939393"/>
      <rect x="285.981" y="577.192" width="53.997" height="78.25" rx="10.542" ry="10.542" transform="translate(-263.521 234.938) rotate(-29.591)" fill="#c23334"/>
      <rect x="222.285" y="608.905" width="53.997" height="87.167" rx="11.117" ry="11.117" transform="translate(-289.691 208.203) rotate(-29.591)" fill="#208f43"/>
      <rect x="158.589" y="640.619" width="53.997" height="96.083" rx="11.691" ry="11.691" transform="translate(-315.861 181.467) rotate(-29.591)" fill="#040006"/>
      <rect x="94.893" y="672.332" width="53.997" height="105" rx="12.266" ry="12.266" transform="translate(-342.03 154.731) rotate(-29.591)" fill="#fff" stroke="#211915" stroke-miterlimit="10"/>
      <rect x="342.205" y="454.535" width="69.333" height="53.997" rx="9.967" ry="9.967" transform="translate(-228.311 569.058) rotate(-60.181)" fill="#447dab"/>
      <rect x="274.195" y="418.111" width="78.25" height="53.997" rx="10.542" ry="10.542" transform="translate(-228.659 495.609) rotate(-60.181)" fill="#208f43"/>
      <rect x="206.185" y="381.686" width="87.167" height="53.997" rx="11.117" ry="11.117" transform="translate(-229.007 422.159) rotate(-60.181)" fill="#fff" stroke="#211915" stroke-miterlimit="10"/>
      <rect x="138.175" y="345.261" width="96.083" height="53.997" rx="11.691" ry="11.691" transform="translate(-229.355 348.71) rotate(-60.181)" fill="#939393"/>
      <rect x="70.165" y="308.837" width="105" height="53.997" rx="12.266" ry="12.266" transform="translate(-229.702 275.261) rotate(-60.181)" fill="#040006"/>
      <rect x="514.858" y="553.491" width="69.333" height="53.997" rx="9.967" ry="9.967" transform="translate(-227.367 768.599) rotate(-60.181)" fill="#fff" stroke="#211915" stroke-miterlimit="10"/>
      <rect x="573.951" y="589.915" width="78.25" height="53.997" rx="10.542" ry="10.542" transform="translate(-227.019 842.049) rotate(-60.181)" fill="#939393"/>
      <rect x="633.044" y="626.34" width="87.167" height="53.997" rx="11.117" ry="11.117" transform="translate(-226.671 915.498) rotate(-60.181)" fill="#447dab"/>
      <rect x="692.137" y="662.765" width="96.083" height="53.997" rx="11.691" ry="11.691" transform="translate(-226.324 988.947) rotate(-60.181)" fill="#208f43"/>
      <rect x="751.231" y="699.189" width="105" height="53.997" rx="12.266" ry="12.266" transform="translate(-225.976 1062.397) rotate(-60.181)" fill="#c23334"/>
    </g>
    <g id="4b9e98aa-2d14-4366-bc9a-797f9bcb81a8" data-name="Capa 3">
      <polygon points="335.192 910.333 310.881 977.126 371.348 1012.036 384.284 938.675 335.192 910.333" fill="#f2d55c"/>
      <polygon points="857.218 525.416 927.218 525.416 927.218 459.838 857.218 472.181 857.218 525.416" fill="#447dab"/>
      <polygon points="857.218 455.934 927.218 443.591 927.218 373.283 857.218 398.761 857.218 455.934" fill="#f2d55c"/>
      <polygon points="924.517 267.459 851.085 218.943 794.021 266.826 854.518 307.873 857.218 381.734 927.218 356.256 924.517 267.459" fill="#939393"/>
      <polygon points="594.343 151.542 618.653 84.749 557.342 49.35 544.407 122.711 594.343 151.542" fill="#f2d55c"/>
      <polygon points="275.415 875.821 240.415 936.442 296.811 969.002 321.122 902.209 275.415 875.821" fill="#c23334"/>
      <polygon points="779.275 258.312 836.339 210.43 775.028 175.032 729.339 229.482 779.275 258.312" fill="#f2d55c"/>
      <polygon points="715.269 221.359 760.959 166.909 703.769 133.89 668.769 194.512 715.269 221.359" fill="#c23334"/>
      <polygon points="654.913 186.512 689.913 125.89 632.723 92.872 608.413 159.665 654.913 186.512" fill="#208f43"/>
      <polygon points="857.218 668.072 927.218 693.55 927.218 623.241 857.218 610.898 857.218 668.072" fill="#f2d55c"/>
      <polygon points="857.218 541.416 857.218 594.652 927.218 606.994 927.218 541.416 857.218 541.416" fill="#939393"/>
      <polygon points="725.948 833.309 771.637 887.759 832.103 852.848 775.039 804.966 725.948 833.309" fill="#f2d55c"/>
      <polygon points="857.218 685.099 851.92 757.46 789.785 796.453 846.849 844.335 921.92 797.874 927.218 710.577 857.218 685.099" fill="#447dab"/>
      <polygon points="543.446 938.675 556.381 1012.036 616.848 977.126 592.538 910.332 543.446 938.675" fill="#f2d55c"/>
      <polygon points="666.17 867.821 701.17 928.443 757.567 895.882 711.877 841.432 666.17 867.821" fill="#fff" stroke="#211915" stroke-miterlimit="10"/>
      <polygon points="528.7 947.189 463.865 980.003 399.029 947.189 386.094 1020.549 463.865 1060.832 541.636 1020.549 528.7 947.189" fill="#c23334"/>
      <polygon points="606.608 902.209 630.919 969.002 687.314 936.442 652.314 875.82 606.608 902.209"/>
      <polygon points="70.511 610.899 0.511 623.241 0.511 693.55 70.511 668.072 70.511 610.899" fill="#f2d55c"/>
      <polygon points="70.511 398.761 0.511 373.283 0.511 443.591 70.511 455.934 70.511 398.761" fill="#f2d55c"/>
      <polygon points="319.317 159.665 295.006 92.872 237.817 125.89 272.817 186.512 319.317 159.665" fill="#fff" stroke="#211915" stroke-miterlimit="10"/>
      <polygon points="215.852 841.432 170.163 895.882 226.559 928.442 261.559 867.821 215.852 841.432" fill="#208f43"/>
      <polygon points="75.809 757.46 70.511 685.099 0.511 710.577 5.81 797.875 80.881 844.335 137.945 796.453 75.809 757.46" fill="#208f43"/>
      <polygon points="198.39 229.482 152.701 175.032 91.391 210.43 148.455 258.312 198.39 229.482" fill="#f2d55c"/>
      <polygon points="258.961 194.512 223.961 133.89 166.771 166.909 212.46 221.359 258.961 194.512"/>
      <polygon points="70.511 472.181 0.511 459.838 0.511 525.416 70.511 525.416 70.511 472.181" fill="#447dab"/>
      <polygon points="76.645 218.943 3.212 267.458 0.511 356.256 70.511 381.734 73.212 307.873 133.709 266.826 76.645 218.943" fill="#fff" stroke="#211915" stroke-miterlimit="10"/>
      <polygon points="70.511 541.416 0.511 541.416 0.511 606.995 70.511 594.652 70.511 541.416" fill="#939393"/>
      <polygon points="383.323 122.711 370.388 49.35 309.077 84.748 333.387 151.541 383.323 122.711" fill="#f2d55c"/>
      <polygon points="152.69 804.966 95.626 852.849 156.092 887.759 201.782 833.309 152.69 804.966" fill="#f2d55c"/>
      <polygon points="463.865 0 385.133 40.837 398.069 114.198 463.865 80.829 529.661 114.198 542.596 40.837 463.865 0"/>
    </g>
    <g id="8c276309-634c-4619-ae8a-65f0ad63ba48" data-name="Capa 4">
      <g>
        <g>
          <path d="M487.707,562.472H467.673a3.447,3.447,0,0,1-2.373-.942l-7.748-7.3,2.234-2.37,7.748,7.3a.2.2,0,0,0,.139.056h20.034a.2.2,0,0,0,.2-.2V517.084a3.464,3.464,0,0,1,3.46-3.46h13.841a.2.2,0,0,0,.2-.2V501.005a.2.2,0,0,0-.2-.2H437.955a3.045,3.045,0,0,0-3.032,2.988l-.339,22.885-3.256-.048.339-22.886a6.314,6.314,0,0,1,6.288-6.195h67.256a3.464,3.464,0,0,1,3.46,3.46V513.42a3.464,3.464,0,0,1-3.46,3.46H491.37a.2.2,0,0,0-.2.2v41.928A3.464,3.464,0,0,1,487.707,562.472Z" fill="#031a2e"/>
          <path d="M441.59,563.288l-.307,0a20.185,20.185,0,0,1-16.2-7.777,32.4,32.4,0,0,1-5.9-12.754,5.03,5.03,0,0,1,4.912-6.132h7.654a5.056,5.056,0,0,1,4.737,3.334c.669,1.851,1.478,3.383,4.61,3.383,2.741,0,3.473-2.491,3.661-3.562a.219.219,0,0,0,0-.036V501.005a3.464,3.464,0,0,1,3.46-3.46h13.23a3.464,3.464,0,0,1,3.46,3.46v38.937a15.6,15.6,0,0,1-.428,3.648,30.238,30.238,0,0,1-5.753,11.879A21.219,21.219,0,0,1,441.59,563.288ZM424.1,539.88a1.771,1.771,0,0,0-1.393.671,1.747,1.747,0,0,0-.343,1.484c1.216,5.363,5.5,17.852,18.958,18,14.278.154,18.743-11.979,20-17.2a12.338,12.338,0,0,0,.337-2.886V501.005a.2.2,0,0,0-.2-.2h-13.23a.2.2,0,0,0-.2.2v38.737a3.406,3.406,0,0,1-.052.6c-.5,2.887-2.607,6.258-6.868,6.258-5.673,0-7.074-3.877-7.673-5.533a1.79,1.79,0,0,0-1.674-1.184Z" fill="#031a2e"/>
          <rect x="425.275" y="548.734" width="15.836" height="3.257" transform="translate(-264.087 484.373) rotate(-46.387)" fill="#031a2e"/>
        </g>
        <rect x="463.995" y="499.987" width="22.999" height="59.737" fill="#031a2e"/>
        <g style="isolation: isolate">
          <polygon points="436.944 502.306 436.944 502.306 443.235 502.242 443.235 502.242 436.944 502.306" fill="#37668b"/>
          <g style="isolation: isolate">
            <g clip-path="url(#987ed1d9-0497-4696-8265-fbf25e310ecf)">
              <g style="isolation: isolate">
                <path d="M443.235,537.2h1.628c0,3.011.169,6.413-5.052,6.442a6.59,6.59,0,0,1-1.719-.209l.543-1.56a4.61,4.61,0,0,0,1.171.141c3.548.022,3.418-2.089,3.429-4.814" fill="#396a8f"/>
                <path d="M438.635,541.872l-.543,1.56c-2.709-.732-3.507-3.279-3.507-6.045h1.628c.023,2.275.574,4,2.422,4.485" fill="#396a91"/>
              </g>
            </g>
          </g>
          <rect x="434.585" y="503.039" width="1.628" height="34.348" fill="#3b6d94"/>
          <g style="isolation: isolate">
            <g clip-path="url(#bb002d62-27e3-497c-a241-9b8890018cac)">
              <g style="isolation: isolate">
                <path d="M436.213,503.039h-1.628a2.359,2.359,0,0,1,1.472-2.188l.613,1.508a.736.736,0,0,0-.457.68" fill="#396a91"/>
                <path d="M436.67,502.359l-.613-1.508a2.337,2.337,0,0,1,.887-.173v1.628a.735.735,0,0,0-.274.053" fill="#396a8f"/>
              </g>
            </g>
          </g>
          <polygon points="436.944 500.678 436.944 500.678 444.863 500.597 444.863 500.597 436.944 500.678" fill="#37668b"/>
          <polygon points="436.944 502.306 436.944 500.678 444.863 500.597 443.235 502.242 436.944 502.306" fill="#3b6c93"/>
          <polygon points="443.235 502.242 444.863 500.597 444.863 537.199 443.235 537.199 443.235 502.242" fill="#3b6b92"/>
          <path d="M443.235,502.242V537.2c-.011,2.725.119,4.836-3.429,4.814-2.8-.007-3.565-1.928-3.593-4.626V503.039a.734.734,0,0,1,.731-.733Z" fill="#447dab"/>
          <polygon points="436.944 502.306 436.944 502.306 443.235 502.242 443.235 502.242 436.944 502.306" fill="#37668b"/>
        </g>
        <g style="isolation: isolate">
          <g style="isolation: isolate">
            <g clip-path="url(#7c595b31-2bdf-4290-80ad-40b324eae5c9)">
              <g style="isolation: isolate">
                <path d="M427.554,553.887l-.087-2.056.209.181-.157,1.843.035.032" fill="#396a8f"/>
                <path d="M427.519,553.855l.157-1.843.046.04-.23,1.779.027.024" fill="#396a91"/>
                <path d="M427.492,553.831l.23-1.779.017.014-.26,1.752.013.013" fill="#396a8f"/>
                <path d="M427.479,553.818l.26-1.752.015.012-.29,1.726.015.014" fill="#39688e"/>
                <path d="M427.464,553.8l.29-1.726.014.011-.321,1.7.017.016" fill="#38688d"/>
                <path d="M427.447,553.788l.321-1.7c.024.019.037.026.039.022l-.489,1.551q.077.076.129.126" fill="#38668b"/>
              </g>
            </g>
          </g>
          <g style="isolation: isolate">
            <g clip-path="url(#a305d174-8135-4c16-8d22-74430e393683)">
              <g style="isolation: isolate">
                <path d="M435.92,544.824l-1.6.547-.033-.029,1.744-.412-.108-.106" fill="#38668b"/>
                <path d="M436.028,544.93l-1.744.412-.012-.012,1.772-.385-.016-.015" fill="#38688d"/>
                <path d="M436.044,544.945l-1.772.385-.015-.014,1.8-.358-.014-.013" fill="#39688e"/>
                <path d="M436.058,544.958l-1.8.358-.017-.016,1.831-.329-.013-.013" fill="#396a8f"/>
                <path d="M436.071,544.971l-1.831.329c-.051-.049-.129-.125-.24-.23l2.126-.047-.055-.052" fill="#396a91"/>
              </g>
            </g>
          </g>
          <g style="isolation: isolate">
            <g clip-path="url(#76865e26-4d31-437e-99ee-3fcf360c941b)">
              <g style="isolation: isolate">
                <polyline points="432.823 540.211 431.708 540.828 431.706 540.825 432.823 540.211 432.823 540.211" fill="#396a91"/>
                <polyline points="432.823 540.211 431.706 540.825 431.703 540.818 432.823 540.212 432.823 540.211" fill="#396a8f"/>
                <polyline points="432.823 540.212 431.703 540.818 431.7 540.812 432.823 540.214 432.823 540.212" fill="#39688e"/>
                <polyline points="432.823 540.214 431.7 540.812 431.697 540.807 432.824 540.218 432.823 540.214" fill="#38688d"/>
                <path d="M432.824,540.218l-1.127.589,0-.006,1.137-.564,0-.019" fill="#38668b"/>
              </g>
            </g>
          </g>
          <polygon points="423.753 540.833 423.753 540.833 431.378 540.592 431.378 540.592 423.753 540.833" fill="#37668b"/>
          <g style="isolation: isolate">
            <g clip-path="url(#1a5a25d9-48e3-4200-9970-ffe61a6e8e3d)">
              <g style="isolation: isolate">
                <path d="M431.708,540.828l1.433-.794,0,.006-1.441.776.006.012" fill="#38668b"/>
                <polyline points="431.702 540.816 433.143 540.04 433.146 540.049 431.697 540.807 431.702 540.816" fill="#38688d"/>
                <path d="M431.7,540.807l1.449-.758.011.041-1.466.713s0,0,.006,0" fill="#39688e"/>
                <path d="M431.691,540.8l1.466-.713a17.014,17.014,0,0,0,.816,2.283,14.844,14.844,0,0,0,2.2,2.512l-1.886.461a14.9,14.9,0,0,1-1.772-2.244,13.173,13.173,0,0,1-.826-2.3" fill="#396a8f"/>
                <path d="M434.289,545.346l1.886-.461.022.022-1.922.426.014.013" fill="#39688e"/>
                <path d="M434.275,545.333l1.922-.426.02.019-1.959.39.017.017" fill="#38688d"/>
                <path d="M434.258,545.316l1.959-.39.1.093L434,545.07l.258.246" fill="#38668b"/>
              </g>
            </g>
          </g>
          <g style="isolation: isolate">
            <g clip-path="url(#33308593-f242-4fa4-b6e1-d0229c846fcb)">
              <g style="isolation: isolate">
                <path d="M427.467,551.831l.1,2.246c-.012-.01-.047-.041-.1-.094l.278-1.92c-.055-.045-.143-.123-.269-.232" fill="#38668b"/>
                <path d="M427.736,552.063l-.278,1.92-.021-.02.317-1.885-.018-.015" fill="#38688d"/>
                <path d="M427.754,552.078l-.317,1.885-.024-.022.357-1.85-.016-.013" fill="#39688e"/>
                <path d="M427.77,552.091l-.357,1.85c-.136-.128-.359-.349-.652-.672l.876-1.388c.159.2.213.271.133.21" fill="#396a8f"/>
                <path d="M427.637,551.881l-.876,1.388a28.59,28.59,0,0,1-3.576-5.094,16.758,16.758,0,0,1-1.983-6.208,2.554,2.554,0,0,1,1.591-2.577l.61,1.51a.928.928,0,0,0-.579.933,15.1,15.1,0,0,0,1.778,5.538,34.227,34.227,0,0,0,3.035,4.51" fill="#396a91"/>
                <path d="M423.4,540.9l-.61-1.51a2.569,2.569,0,0,1,.96-.186v1.629a.944.944,0,0,0-.35.067" fill="#396a8f"/>
              </g>
            </g>
          </g>
          <polygon points="434 545.07 436.314 545.019 427.562 554.077 427.467 551.831 434 545.07" fill="#3b6b92"/>
          <g style="isolation: isolate">
            <g clip-path="url(#b3099a4f-72af-403c-b3fc-5efa168cf62d)">
              <g style="isolation: isolate">
                <path d="M431.378,540.592l-.052-1.628a2.073,2.073,0,0,1,1.815,1.07l-1.433.794a.408.408,0,0,0-.33-.236" fill="#396a8f"/>
              </g>
            </g>
          </g>
          <polygon points="423.753 539.204 423.753 539.204 431.326 538.964 431.326 538.964 423.753 539.204" fill="#37668b"/>
          <polygon points="423.753 540.833 423.753 539.204 431.326 538.964 431.378 540.592 423.753 540.833" fill="#3b6c93"/>
          <polygon points="423.753 540.833 423.753 540.833 431.378 540.592 431.378 540.592 423.753 540.833" fill="#37668b"/>
          <path d="M431.378,540.592a.408.408,0,0,1,.33.236,11.237,11.237,0,0,0,.809,2.274c.586,1.137,2.563,3,1.483,1.968l-6.533,6.761c1.1.962-.639-.551-2.865-4.46a15.1,15.1,0,0,1-1.778-5.538.929.929,0,0,1,.929-1Z" fill="#447dab"/>
        </g>
        <g style="isolation: isolate">
          <g style="isolation: isolate">
            <g clip-path="url(#0643a4ca-8fe7-474d-9fe4-c4601c81bb33)">
              <g style="isolation: isolate">
                <path d="M430.68,556.354l1.955-.641c-.006,0,.011.021.054.058l-2.213.428c.047.037.116.09.2.155" fill="#c7ae48"/>
                <path d="M430.476,556.2l2.213-.428.054.046-2.309.35.042.032" fill="#c8af4a"/>
                <path d="M430.434,556.167l2.309-.35.081.068-2.418.259.028.023" fill="#cab14b"/>
                <path d="M430.406,556.144l2.418-.259.1.087-2.533.164.01.008" fill="#c8af4a"/>
              </g>
            </g>
          </g>
          <polygon points="432.929 555.972 432.929 555.972 439.909 548.47 439.909 548.47 432.929 555.972" fill="#c4ac48"/>
          <g style="isolation: isolate">
            <g clip-path="url(#97e9ee13-6e44-4a93-8039-9c606b258bdf)">
              <g style="isolation: isolate">
                <path d="M439.3,546.968l.613,1.5c-.162,0-.266,0-.328,0l-.24-1.5a.162.162,0,0,1-.045,0" fill="#d3b94e"/>
                <polyline points="439.341 546.972 439.581 548.467 439.576 548.466 439.343 546.972 439.341 546.972" fill="#d2b84d"/>
                <polyline points="439.343 546.972 439.576 548.466 439.572 548.466 439.345 546.972 439.343 546.972" fill="#d0b64d"/>
                <polyline points="439.345 546.972 439.572 548.466 439.568 548.466 439.348 546.972 439.345 546.972" fill="#ceb44c"/>
                <polyline points="439.348 546.972 439.568 548.466 439.563 548.466 439.35 546.972 439.348 546.972" fill="#ccb34a"/>
                <polyline points="439.35 546.972 439.563 548.466 439.559 548.466 439.352 546.973 439.35 546.972" fill="#cab14b"/>
                <polyline points="439.352 546.973 439.559 548.466 439.556 548.465 439.355 546.973 439.352 546.973" fill="#c8af4a"/>
                <path d="M439.355,546.973l.2,1.492c-.034,0-.049,0-.049-.006l-.074-1.485h-.078" fill="#c7ae48"/>
              </g>
            </g>
          </g>
          <polygon points="450.053 502.768 450.053 502.768 459.625 502.768 459.625 502.768 450.053 502.768" fill="#c6ad48"/>
          <g style="isolation: isolate">
            <g clip-path="url(#b83ed4d1-528c-4ba7-a20a-eb25b08bc6a3)">
              <g style="isolation: isolate">
                <path d="M459.748,541.175l2.041-.007a25.552,25.552,0,0,1-3.584,9.912L456.517,550a22.786,22.786,0,0,0,3.231-8.824" fill="#cab14b"/>
                <path d="M456.517,550l1.688,1.081a20.1,20.1,0,0,1-3.391,4.121l-1.326-1.539A18.033,18.033,0,0,0,456.517,550" fill="#ccb34a"/>
                <path d="M453.488,553.662l1.326,1.539a10.473,10.473,0,0,1-.827.691,23.93,23.93,0,0,1-3,1.96l-.953-1.8a22.108,22.108,0,0,0,2.728-1.786,9.077,9.077,0,0,0,.724-.6" fill="#ceb44c"/>
                <path d="M450.036,556.051l.953,1.8a19.938,19.938,0,0,1-4.018,1.681l-.552-1.96a18.068,18.068,0,0,0,3.617-1.522" fill="#d0b64d"/>
                <path d="M446.419,557.573l.552,1.96a18,18,0,0,1-3.68.674l-.155-2.029a15.958,15.958,0,0,0,3.283-.605" fill="#d2b84d"/>
                <path d="M443.136,558.178l.155,2.029q-.7.054-1.372.053a18.9,18.9,0,0,1-2.64-.185l.281-2.012a17.233,17.233,0,0,0,2.359.161q.6,0,1.217-.046" fill="#d3b94e"/>
                <path d="M439.56,558.063l-.281,2.012a20.176,20.176,0,0,1-7.048-2.4l1.4-1.448a19.429,19.429,0,0,0,5.933,1.836" fill="#d5bb4f"/>
                <path d="M433.627,556.227l-1.4,1.448a17.088,17.088,0,0,1-2.056-1.348l2.479-.588c-.112-.108.243.126.973.488" fill="#d7bc50"/>
                <path d="M432.654,555.739l-2.479.588-.018-.014,2.5-.567-.007-.007" fill="#d5bb4f"/>
                <path d="M432.661,555.746l-2.5.567-.018-.014,2.53-.546-.008-.007" fill="#d3b94e"/>
                <path d="M432.669,555.753l-2.53.546-.016-.013,2.554-.525-.008-.008" fill="#d2b84d"/>
                <path d="M432.677,555.761l-2.554.525-.016-.012,2.58-.5-.01-.008" fill="#d0b64d"/>
                <path d="M432.687,555.769l-2.58.5-.015-.012,2.606-.483-.011-.01" fill="#ceb44c"/>
                <path d="M432.7,555.779l-2.606.483-.014-.011,2.631-.462-.011-.01" fill="#ccb34a"/>
                <path d="M432.709,555.789l-2.631.462-.013-.011,2.657-.441-.013-.01" fill="#cab14b"/>
                <path d="M432.722,555.8l-2.657.441-.013-.01,2.683-.419-.013-.012" fill="#c8af4a"/>
                <path d="M432.735,555.811l-2.683.419-.082-.067,2.959-.191-.194-.161" fill="#c7ae48"/>
              </g>
            </g>
          </g>
          <g style="isolation: isolate">
            <g clip-path="url(#ca3b925b-77e3-4a91-97f0-fda0f2674871)">
              <g style="isolation: isolate">
                <path d="M439.909,548.47l-.847-2.078.194.008.319,2.066c.06,0,.167,0,.334,0" fill="#c7ae48"/>
                <polyline points="439.575 548.466 439.256 546.4 439.266 546.401 439.565 548.466 439.575 548.466" fill="#c8af4a"/>
                <polyline points="439.565 548.466 439.266 546.401 439.276 546.401 439.557 548.466 439.565 548.466" fill="#cab14b"/>
                <path d="M439.557,548.466l-.281-2.065q.258.009.507.009a12.775,12.775,0,0,0,2.1-.164l.5,2a15.025,15.025,0,0,1-2.6.2c-.189,0-.365.013-.226.021" fill="#ccb34a"/>
                <path d="M442.381,548.241l-.5-2a9.059,9.059,0,0,0,1.906-.527l.963,1.848a10.837,10.837,0,0,1-2.367.674" fill="#ceb44c"/>
                <path d="M444.748,547.567l-.963-1.848a7.179,7.179,0,0,0,1.314-.691l1.283,1.649a8.777,8.777,0,0,1-1.634.89" fill="#d0b64d"/>
                <path d="M446.382,546.677l-1.283-1.649a6.471,6.471,0,0,0,1.05-.877l1.543,1.392a8.1,8.1,0,0,1-1.31,1.134" fill="#d2b84d"/>
                <path d="M447.692,545.543l-1.543-1.392a6.416,6.416,0,0,0,.9-1.184l1.771,1.043a8.327,8.327,0,0,1-1.131,1.533" fill="#d3b94e"/>
                <path d="M448.823,544.01l-1.771-1.043a7.057,7.057,0,0,0,.71-1.649l1.958.55a9.452,9.452,0,0,1-.9,2.142" fill="#d5bb4f"/>
                <path d="M449.72,541.868l-1.958-.55a6.463,6.463,0,0,0,.256-1.438l2.033.1a8.848,8.848,0,0,1-.331,1.888" fill="#d7bc50"/>
              </g>
            </g>
          </g>
          <polygon points="432.929 555.972 429.97 556.163 439.062 546.392 439.909 548.47 432.929 555.972" fill="#d9bf50"/>
          <polygon points="429.97 556.163 429.97 556.163 439.062 546.392 439.062 546.392 429.97 556.163" fill="#c4ac48"/>
          <polygon points="450.053 502.768 448.018 500.733 461.654 500.733 459.625 502.768 450.053 502.768" fill="#d2b84d"/>
          <polygon points="448.018 500.733 448.018 500.733 461.654 500.733 461.654 500.733 448.018 500.733" fill="#c6ad48"/>
          <polygon points="450.051 539.98 448.018 539.88 448.018 500.733 450.053 502.768 450.051 539.98" fill="#e0c453"/>
          <polygon points="459.625 502.768 461.654 500.733 461.789 541.168 459.748 541.175 459.625 502.768" fill="#ceb44c"/>
          <polygon points="432.929 555.972 432.929 555.972 439.909 548.47 439.909 548.47 432.929 555.972" fill="#c4ac48"/>
          <path d="M459.625,502.768l.123,38.407c-1.378,8.954-6.737,12.908-6.984,13.09a17.615,17.615,0,0,1-10.845,3.959c-6.273,0-10.46-3.471-8.99-2.252l6.98-7.5c-.633,0-.393-.025-.126-.025,9.8.035,10.244-8,10.268-8.465l0-37.212Z" fill="#f2d55c"/>
          <polygon points="450.053 502.768 450.053 502.768 459.625 502.768 459.625 502.768 450.053 502.768" fill="#c6ad48"/>
        </g>
        <g style="isolation: isolate">
          <g style="isolation: isolate">
            <g clip-path="url(#aed92004-8828-46b0-bba0-d6198f7eb586)">
              <g style="isolation: isolate">
                <polyline points="484.039 511.651 484.442 513.042 484.44 513.042 484.039 511.652 484.039 511.651" fill="#ceb44c"/>
                <polyline points="484.039 511.652 484.44 513.042 484.436 513.043 484.04 511.652 484.039 511.652" fill="#ccb34a"/>
                <polyline points="484.04 511.652 484.436 513.043 484.435 513.044 484.043 511.651 484.04 511.652" fill="#cab14b"/>
                <polyline points="484.043 511.651 484.435 513.044 484.435 513.044 484.043 511.651 484.043 511.651" fill="#c8af4a"/>
              </g>
            </g>
          </g>
          <g style="isolation: isolate">
            <g clip-path="url(#08de2717-a513-4377-93f9-968c81abdefa)">
              <g style="isolation: isolate">
                <path d="M466.064,507.785l.821.225,0,.007-.812-.239,0,.007" fill="#c7ae48"/>
              </g>
            </g>
          </g>
          <g style="isolation: isolate">
            <g clip-path="url(#15fa0816-d8af-48d2-8ebf-abff7e354118)">
              <g style="isolation: isolate">
                <path d="M504.811,501.279l-1.21,1.494h-.022l1.314-1.5h-.082" fill="#c7ae48"/>
                <path d="M504.893,501.278l-1.314,1.5h-.022l1.358-1.5h-.022" fill="#c8af4a"/>
                <path d="M504.915,501.278l-1.358,1.5h-.03l1.4-1.5h-.015" fill="#cab14b"/>
                <path d="M504.93,501.278l-1.4,1.5h-.037l1.448-1.5h-.008" fill="#ccb34a"/>
                <path d="M504.938,501.278l-1.448,1.5h-.033l1.483-1.5h0" fill="#ceb44c"/>
              </g>
            </g>
          </g>
          <g style="isolation: isolate">
            <g clip-path="url(#bd3af99f-4f51-42f8-95fb-5e3dd2635131)">
              <g style="isolation: isolate">
                <path d="M466.885,508.01l-.821-.225,0-.007.812.239,0-.007" fill="#d3b94e"/>
              </g>
            </g>
          </g>
          <polygon points="485.808 557.383 487.843 559.418 474.817 559.418 476.852 557.383 485.808 557.383" fill="#d5ba4f"/>
          <polygon points="476.852 557.383 474.817 559.418 474.817 522.647 476.853 522.647 476.852 557.383" fill="#dabe50"/>
          <polygon points="485.808 517.219 487.843 517.219 487.843 559.418 485.808 557.383 485.808 517.219" fill="#d3b94e"/>
          <polygon points="503.503 511.588 505.549 513.623 491.439 513.623 491.439 511.588 503.503 511.588" fill="#d5ba4f"/>
          <g style="isolation: isolate">
            <g clip-path="url(#e7c183f9-2596-4014-91a0-02fe6e35d29e)">
              <g style="isolation: isolate">
                <path d="M491.439,511.588v2.035a3.592,3.592,0,0,0-2.944,1.529l-1.665-1.17a5.62,5.62,0,0,1,4.609-2.394" fill="#ceb44c"/>
                <path d="M486.83,513.982l1.665,1.17a3.592,3.592,0,0,0-.479.962l-1.937-.626a5.616,5.616,0,0,1,.751-1.506" fill="#ccb34a"/>
                <path d="M486.079,515.488l1.937.626a3.6,3.6,0,0,0-.173,1.105h-2.035a5.625,5.625,0,0,1,.271-1.731" fill="#ceb44c"/>
              </g>
            </g>
          </g>
          <polygon points="475.274 511.039 476.376 513.081 464.91 513.013 466.921 510.99 475.274 511.039" fill="#d5ba4f"/>
          <g style="isolation: isolate">
            <g clip-path="url(#69d4735b-059b-4eb0-8093-de75d3f79f93)">
              <g style="isolation: isolate">
                <path d="M476.853,522.647h-2.036a10.785,10.785,0,0,1,.221-2.4l2,.4a8.878,8.878,0,0,0-.184,2" fill="#d2b84d"/>
                <path d="M477.037,520.646l-2-.4a11.378,11.378,0,0,1,3.749-6.525l1.391,1.516a9.394,9.394,0,0,0-3.141,5.408" fill="#d3b94e"/>
                <path d="M480.178,515.238l-1.391-1.516a13.482,13.482,0,0,1,5.086-2.641l.569,1.961a11.4,11.4,0,0,0-4.264,2.2" fill="#d2b84d"/>
              </g>
            </g>
          </g>
          <g style="isolation: isolate">
            <g clip-path="url(#597cd2e6-fd86-4f0e-8d44-9b48fb2b35fd)">
              <g style="isolation: isolate">
                <path d="M483.875,506.594l-.137,2.043c-.249.039-4.986.78-7.362,4.444l-1.1-2.042c2.31-3.519,7.83-4.363,8.6-4.445" fill="#ceb44c"/>
              </g>
            </g>
          </g>
          <g style="isolation: isolate">
            <g clip-path="url(#430ac331-79b5-4c2d-8c39-fe333e254239)">
              <g style="isolation: isolate">
                <polyline points="484.442 513.042 483.873 511.081 483.875 511.08 484.438 513.043 484.442 513.042" fill="#c7ae48"/>
                <polyline points="484.438 513.043 483.875 511.08 483.878 511.08 484.436 513.043 484.438 513.043" fill="#c8af4a"/>
                <polyline points="484.436 513.043 483.878 511.08 483.881 511.08 484.435 513.044 484.436 513.043" fill="#cab14b"/>
                <polyline points="484.435 513.044 483.881 511.08 483.884 511.079 484.435 513.045 484.435 513.044" fill="#ccb34a"/>
                <polyline points="484.435 513.045 483.884 511.079 483.888 511.079 484.437 513.045 484.435 513.045" fill="#ceb44c"/>
                <polyline points="484.437 513.045 483.888 511.079 483.893 511.078 484.439 513.045 484.437 513.045" fill="#d0b64d"/>
                <path d="M484.439,513.045l-.546-1.967a2.214,2.214,0,0,0,.786-.269l1.27,1.649a3.437,3.437,0,0,1-1.51.587" fill="#d2b84d"/>
                <path d="M485.949,512.458l-1.27-1.649a1.14,1.14,0,0,0,.539-.656l1.95.573a3.013,3.013,0,0,1-1.219,1.732" fill="#d3b94e"/>
                <path d="M487.168,510.726l-1.95-.573a1.162,1.162,0,0,0,.046-.329.971.971,0,0,0-.386-.794l1.491-1.45a3.16,3.16,0,0,1,.93,2.244,3.977,3.977,0,0,1-.131.9" fill="#d2b84d"/>
                <path d="M486.369,507.58l-1.491,1.45a2.109,2.109,0,0,0-.958-.373l.346-2.022a3.855,3.855,0,0,1,2.1.945" fill="#d0b64d"/>
                <path d="M484.266,506.635l-.346,2.022c-.1-.015-.167-.019-.182-.02l.137-2.043c.031,0,.176.01.391.041" fill="#ceb44c"/>
              </g>
            </g>
          </g>
          <polygon points="466.921 510.99 464.91 513.013 464.843 507.45 466.885 508.01 466.921 510.99" fill="#dabe50"/>
          <polygon points="503.457 502.774 505.482 500.733 505.549 513.623 503.503 511.588 503.457 502.774" fill="#d3b94e"/>
          <g style="isolation: isolate">
            <g clip-path="url(#b5bd5c82-50a3-4e31-9905-5d4e9ca4e873)">
              <g style="isolation: isolate">
                <path d="M474.931,502.767v-2.035c2.1.023,6.159.031,10.671.031,8.583,0,18.329-.026,19.731-.03l-1.74,2.04c.343,0-9.406.026-17.991.025-4.521.007-8.578-.007-10.67-.031" fill="#d2b84d"/>
                <path d="M503.592,502.773l1.74-2.04h.035l-1.786,2.04h.011" fill="#d0b64d"/>
                <path d="M503.581,502.773l1.786-2.04h.03l-1.832,2.04h.016" fill="#ceb44c"/>
                <path d="M503.565,502.773l1.832-2.04h.027l-1.879,2.04h.02" fill="#ccb34a"/>
                <path d="M503.545,502.773l1.879-2.04h.023l-1.927,2.04h.025" fill="#cab14b"/>
                <path d="M503.52,502.773l1.927-2.04h.019l-1.975,2.041h.029" fill="#c8af4a"/>
                <path d="M503.491,502.774l1.975-2.041h.016l-2.025,2.041h.034" fill="#c7ae48"/>
              </g>
            </g>
          </g>
          <g style="isolation: isolate">
            <g clip-path="url(#92de1052-8428-4eb3-a70b-20160c4f4ba9)">
              <g style="isolation: isolate">
                <path d="M466.885,508.01l-2.042-.56c.009-.016.027-.045.053-.086l1.993.641c-.009.014-.01.016,0,0" fill="#d3b94e"/>
                <path d="M466.889,508.005l-1.993-.641c.523-.836,4.326-6.631,10.034-6.632v2.035c-4.533-.051-7.858,4.962-8.042,5.238" fill="#d2b84d"/>
              </g>
            </g>
          </g>
          <path d="M474.931,502.767c2.092.024,6.149.038,10.67.031,9.028,0,19.342-.028,17.856-.024l.046,8.814H491.439a5.629,5.629,0,0,0-5.631,5.631v40.164h-8.956V522.647c-.013-.393-.261-7.338,7.589-9.605a3.247,3.247,0,0,0,2.857-3.218c-.138-3.142-3.267-3.207-3.424-3.23-.771.082-6.291.926-8.6,4.445l-8.353-.049-.036-2.98C466.747,508.236,470.174,502.714,474.931,502.767Z" fill="#f2d65e"/>
        </g>
        <g style="isolation: isolate">
          <g style="isolation: isolate">
            <g clip-path="url(#46a7065b-8c9c-495e-8865-188a1a3dc7b3)">
              <g style="isolation: isolate">
                <path d="M460.819,552.732l1.554-.03c-.046.047-.081.082-.106.105l-1.427-.1-.021.023" fill="#38688d"/>
                <path d="M460.84,552.709l1.427.1c-.023.021-.037.032-.043.031l-1.327-.2c-.025.031-.044.053-.057.068" fill="#38668b"/>
              </g>
            </g>
          </g>
          <polygon points="466.064 519.052 466.064 519.052 468.981 519.052 468.981 519.052 466.064 519.052" fill="#37668b"/>
          <polygon points="468.981 558.062 470.203 559.283 467.625 559.283 468.107 558.062 468.981 558.062" fill="#396990"/>
          <g style="isolation: isolate">
            <g clip-path="url(#0b841fdd-5e13-400e-95d3-694c0e93d49e)">
              <g style="isolation: isolate">
                <path d="M462.373,552.7l-1.753.034.037-.039,1.611.109c.025-.023.06-.058.105-.1" fill="#38668b"/>
                <path d="M462.268,552.806l-1.611-.109.012-.013,1.585.135.014-.013" fill="#38688d"/>
                <path d="M462.254,552.819l-1.585-.135.014-.015,1.56.159.011-.009" fill="#39688e"/>
                <path d="M462.243,552.828l-1.56-.159c.343-.394,1.994-2.591,4.16-10.821l1.191.313c-2.2,8.436-4.036,10.859-3.791,10.667" fill="#396a8f"/>
              </g>
            </g>
          </g>
          <polygon points="468.107 558.062 467.625 559.283 460.62 552.736 462.373 552.702 468.107 558.062" fill="#396a91"/>
          <polygon points="466.034 542.161 464.843 541.848 464.843 517.831 466.064 519.052 466.034 542.161" fill="#3a6b92"/>
          <polygon points="466.064 519.052 464.843 517.831 470.203 517.831 468.981 519.052 466.064 519.052" fill="#396990"/>
          <polygon points="464.843 517.831 464.843 517.831 470.203 517.831 470.203 517.831 464.843 517.831" fill="#37668b"/>
          <polygon points="468.981 519.052 470.203 517.831 470.203 559.283 468.981 558.062 468.981 519.052" fill="#39688e"/>
          <path d="M468.981,519.052v39.01h-.874l-5.734-5.36c-.724.73,1.243-1.292,3.661-10.541l.03-23.109Z" fill="#447dab"/>
          <polygon points="466.064 519.052 466.064 519.052 468.981 519.052 468.981 519.052 466.064 519.052" fill="#37668b"/>
        </g>
      </g>
    </g>
  </g>
</svg>
